<svg xmlns="http://www.w3.org/2000/svg" viewBox="0 0 38 22"><title>velo-meca</title><g id="separateur-titre"><path d="M29.85,7.78a7.23,7.23,0,0,0-2.29.38l-2-6A2.73,2.73,0,0,0,22.93.32H21.22a1.05,1.05,0,0,0,0,2.1h1.71a.66.66,0,0,1,.61.44l.29.88H15l-.14-.43.47-.06a.84.84,0,0,0,.73-.82V2.35a1.16,1.16,0,0,0-1-1.17L12.11.9a1.18,1.18,0,0,0-1.28,1.31l.1.85a.73.73,0,0,0,.27.49.75.75,0,0,0,.54.15l1-.13.32,1L10.81,8.32a6.92,6.92,0,0,0-2.7-.54,7.11,7.11,0,1,0,7,8.16h3a1.08,1.08,0,0,0,.81-.37L25.3,8l.38,1.1a7.1,7.1,0,1,0,4.17-1.36ZM13.93,7.19l2.2,6.65h-1a7.11,7.11,0,0,0-2.51-4.45Zm-2.41,4A5,5,0,0,1,13,13.84H10ZM8.11,19.9a5,5,0,0,1,0-10,5.08,5.08,0,0,1,1.61.27l-2.51,4.2a1.05,1.05,0,0,0,.9,1.59H13A5,5,0,0,1,8.11,19.9Zm10-6.65L15.7,5.84h8.71Zm11.7,6.65a5,5,0,0,1-3.45-8.64,12.08,12.08,0,0,0,2.69,4.36,1.07,1.07,0,0,0,.76.32,1.05,1.05,0,0,0,.75-1.78,9.8,9.8,0,0,1-2.23-3.64l-.13-.37a5,5,0,1,1,1.61,9.75Z"/></g></svg>