<svg xmlns="http://www.w3.org/2000/svg" viewBox="0 0 28 24"><title>filtre-map-places-dispos</title><g id="separateur-titre"><path d="M14.54,8.88H13v2.56h1.54a1.34,1.34,0,0,0,1-.3,1.13,1.13,0,0,0,.34-.89,1.44,1.44,0,0,0-.35-1A1.22,1.22,0,0,0,14.54,8.88Z"/><path d="M19.79,3.78H8.26A2.28,2.28,0,0,0,6,6V17.56a2.26,2.26,0,0,0,2.26,2.22H19.79A2.22,2.22,0,0,0,22,17.56V6A2.25,2.25,0,0,0,19.79,3.78Zm-2.66,8.59a4.06,4.06,0,0,1-2.65.77H13v3.23H10.77V7.18h3.75a4.31,4.31,0,0,1,1.87.36,2.84,2.84,0,0,1,1.25,1.09,2.94,2.94,0,0,1,.45,1.61A2.62,2.62,0,0,1,17.13,12.37Z"/></g></svg>